<svg width="23" height="23" viewBox="0 0 23 23" fill="none" xmlns="http://www.w3.org/2000/svg">
<path d="M3.94727 0.276367C4.43355 1.24894 5.14437 2.42487 6.3125 3.35938C7.47094 4.28612 9.10976 5 11.5 5C13.8902 5 15.5291 4.28612 16.6875 3.35938C17.8556 2.42487 18.5665 1.24894 19.0527 0.276367L19.1914 0H23V3.80859L22.7236 3.94727C21.8002 4.40899 20.6105 5.3542 19.6543 6.66895C18.7015 7.979 18 9.62849 18 11.5C18 13.3715 18.7015 15.021 19.6543 16.3311C20.6105 17.6458 21.8002 18.591 22.7236 19.0527L23 19.1914V23H19.1396L19.0254 22.6582C18.5567 21.2521 17.7683 20.1813 16.585 19.4766C15.3923 18.7663 13.7486 18.3976 11.5225 18.499L11.5059 18.5H11.4883C9.10912 18.4464 7.46634 18.8171 6.31152 19.5127C5.17097 20.1998 4.44738 21.2399 3.97461 22.6582L3.86035 23H0V19.1396L0.341797 19.0254C3.0944 18.1079 5 15.3342 5 11.5C5 7.66584 3.0944 4.89214 0.341797 3.97461L0 3.86035V0H3.80859L3.94727 0.276367ZM11.5 6.5C8.73858 6.5 6.5 8.73858 6.5 11.5C6.5 14.2614 8.73858 16.5 11.5 16.5C14.2614 16.5 16.5 14.2614 16.5 11.5C16.5 8.73858 14.2614 6.5 11.5 6.5Z" fill="white"/>
</svg>
