<svg width="26" height="26" viewBox="0 0 26 26" fill="none" xmlns="http://www.w3.org/2000/svg">
<path d="M17.8333 -1.10493e-07C18.4777 -4.94693e-08 19 0.522335 19 1.16667V1.16667C19 4.38833 16.3883 7 13.1667 7L12.8333 7C9.61167 7 7 4.38833 7 1.16667V1.16667C7 0.522334 7.52233 -1.08703e-06 8.16667 -1.026e-06L17.8333 -1.10493e-07Z" fill="#D9D9D9"/>
<path d="M26 17.8333C26 18.4777 25.4777 19 24.8333 19V19C21.6117 19 19 16.3883 19 13.1667L19 12.8333C19 9.61167 21.6117 7 24.8333 7V7C25.4777 7 26 7.52233 26 8.16667L26 17.8333Z" fill="#D9D9D9"/>
<path d="M17.8333 26C18.4777 26 19 25.4777 19 24.8333V24.8333C19 21.6117 16.3883 19 13.1667 19L12.8333 19C9.61167 19 7 21.6117 7 24.8333V24.8333C7 25.4777 7.52233 26 8.16667 26L17.8333 26Z" fill="#D9D9D9"/>
<path d="M1.61489e-07 17.8333C7.23013e-08 18.4777 0.522334 19 1.16667 19V19C4.38833 19 7 16.3883 7 13.1667L7 12.8333C7 9.61167 4.38833 7 1.16667 7V7C0.522336 7 1.58873e-06 7.52233 1.49954e-06 8.16667L1.61489e-07 17.8333Z" fill="#D9D9D9"/>
<circle cx="13" cy="13" r="4" transform="rotate(90 13 13)" fill="#D9D9D9"/>
</svg>
